<svg width="24" height="24" viewBox="0 0 24 24" fill="none" xmlns="http://www.w3.org/2000/svg">
<path fill-rule="evenodd" clip-rule="evenodd" d="M6.28033 20.5303C5.98744 20.8232 5.51256 20.8232 5.21967 20.5303L2.21967 17.5303C1.92678 17.2374 1.92678 16.7626 2.21967 16.4697L5.21967 13.4697C5.51256 13.1768 5.98744 13.1768 6.28033 13.4697C6.57322 13.7626 6.57322 14.2374 6.28033 14.5303L4.56066 16.25H15C18.0376 16.25 20.5 13.7876 20.5 10.75C20.5 7.71243 18.0376 5.25 15 5.25H5.75C5.33579 5.25 5 4.91421 5 4.5C5 4.08579 5.33579 3.75 5.75 3.75H15C18.866 3.75 22 6.88401 22 10.75C22 14.616 18.866 17.75 15 17.75H4.56066L6.28033 19.4697C6.57322 19.7626 6.57322 20.2374 6.28033 20.5303Z" fill="white"/>
</svg>
